<svg xmlns="http://www.w3.org/2000/svg" xmlns:xlink="http://www.w3.org/1999/xlink" width="435.487" height="87.57" viewBox="0 0 435.487 87.57"><defs><style>.a,.e{fill:#fff;}.b{fill:none;}.c{clip-path:url(#a);}.d{clip-path:url(#b);}.e{font-size:18px;font-family:OpenSans-Light, Open Sans;font-weight:300;}</style><clipPath id="a"><path class="a" d="M0,12.615H418.119V-68.307H0Z" transform="translate(0 68.307)"/></clipPath><clipPath id="b"><path class="b" d="M0,18.87H435.487V-68.7H0Z" transform="translate(0 68.7)"/></clipPath></defs><g class="c" transform="translate(0 0.546)"><g transform="translate(120.713 31.03)"><path class="a" d="M0,6.349A1.7,1.7,0,0,1,.489,5.111a1.649,1.649,0,0,1,1.228-.5,1.688,1.688,0,0,1,1.533.869A11.033,11.033,0,0,0,7.1,9.194a11.193,11.193,0,0,0,5.775,1.423q4.493,0,6.9-1.805a6.247,6.247,0,0,0,2.4-5.334,5.672,5.672,0,0,0-.7-2.845,5.991,5.991,0,0,0-1.889-2.042,15.863,15.863,0,0,0-2.724-1.448Q15.331-3.5,13.639-4.042T10.256-5.149a22.014,22.014,0,0,1-3.225-1.37A13.961,13.961,0,0,1,4.309-8.363,7.36,7.36,0,0,1,2.419-11a8.975,8.975,0,0,1-.7-3.649,8.458,8.458,0,0,1,2.947-6.6q2.948-2.623,8.578-2.621a15.3,15.3,0,0,1,6.833,1.488,12.033,12.033,0,0,1,4.77,4.07,1.808,1.808,0,0,1,.318,1.028,1.656,1.656,0,0,1-.489,1.224,1.669,1.669,0,0,1-1.23.487,1.753,1.753,0,0,1-1.427-.685,10.781,10.781,0,0,0-8.775-4.268q-3.992,0-5.908,1.66a5.331,5.331,0,0,0-1.916,4.215,4.687,4.687,0,0,0,.7,2.542,5.9,5.9,0,0,0,1.889,1.871,17.3,17.3,0,0,0,2.724,1.37q1.532.619,3.224,1.185T17.34-6.493A21.434,21.434,0,0,1,20.564-5a14.378,14.378,0,0,1,2.722,1.976,7.888,7.888,0,0,1,1.89,2.765,9.533,9.533,0,0,1,.7,3.741,9.4,9.4,0,0,1-3.37,7.771q-3.371,2.714-9.635,2.713a15.469,15.469,0,0,1-7.758-1.909A11.863,11.863,0,0,1,.264,7.324,2.191,2.191,0,0,1,0,6.349" transform="translate(0 23.866)"/></g><g transform="translate(152.054 31.421)"><path class="a" d="M0,.388a1.775,1.775,0,0,1,.541-1.3,1.791,1.791,0,0,1,1.31-.541,1.715,1.715,0,0,1,1.559.87l9.569,15.332L22.573-.587a1.715,1.715,0,0,1,1.559-.87,1.791,1.791,0,0,1,1.31.541,1.775,1.775,0,0,1,.541,1.3,1.879,1.879,0,0,1-.264.975L14.828,18.406V33.9a1.733,1.733,0,0,1-.541,1.291,1.813,1.813,0,0,1-1.308.527A1.8,1.8,0,0,1,11.154,33.9V18.406L.264,1.362A1.879,1.879,0,0,1,0,.388" transform="translate(0 1.457)"/></g><g transform="translate(184.902 31.421)"><path class="a" d="M0,7.44V-26.175a1.717,1.717,0,0,1,.528-1.264A1.734,1.734,0,0,1,1.8-27.966a1.716,1.716,0,0,1,1.612,1.028L16.52-2.491,29.683-26.938a1.785,1.785,0,0,1,1.612-1.028,1.732,1.732,0,0,1,1.269.528,1.717,1.717,0,0,1,.528,1.264V7.44a1.675,1.675,0,0,1-.528,1.251,1.754,1.754,0,0,1-1.269.514A1.758,1.758,0,0,1,29.524,7.44V-19.114l-11.392,21A1.715,1.715,0,0,1,16.52,2.909a1.683,1.683,0,0,1-1.613-1.027l-11.312-21V7.44a1.676,1.676,0,0,1-.53,1.251A1.751,1.751,0,0,1,1.8,9.205,1.756,1.756,0,0,1,.528,8.691,1.675,1.675,0,0,1,0,7.44" transform="translate(0 27.966)"/></g><g transform="translate(227.529 31.421)"><path class="a" d="M0,7.44V-26.175a1.717,1.717,0,0,1,.528-1.264A1.732,1.732,0,0,1,1.8-27.966a1.716,1.716,0,0,1,1.612,1.028L16.519-2.491,29.683-26.938a1.785,1.785,0,0,1,1.612-1.028,1.732,1.732,0,0,1,1.269.528,1.721,1.721,0,0,1,.528,1.264V7.44a1.679,1.679,0,0,1-.528,1.251,1.754,1.754,0,0,1-1.269.514A1.758,1.758,0,0,1,29.524,7.44V-19.114l-11.392,21a1.717,1.717,0,0,1-1.613,1.027,1.683,1.683,0,0,1-1.612-1.027l-11.312-21V7.44a1.676,1.676,0,0,1-.53,1.251A1.751,1.751,0,0,1,1.8,9.205,1.754,1.754,0,0,1,.528,8.691,1.675,1.675,0,0,1,0,7.44" transform="translate(0 27.966)"/></g><g transform="translate(360.319 31.421)"><path class="a" d="M0,.388a1.775,1.775,0,0,1,.541-1.3,1.791,1.791,0,0,1,1.31-.541,1.716,1.716,0,0,1,1.559.87l9.568,15.332,9.6-15.332a1.714,1.714,0,0,1,1.559-.87,1.786,1.786,0,0,1,1.308.541,1.771,1.771,0,0,1,.542,1.3,1.891,1.891,0,0,1-.264.975L14.828,18.406V33.9a1.729,1.729,0,0,1-.542,1.291,1.808,1.808,0,0,1-1.308.527A1.8,1.8,0,0,1,11.154,33.9V18.406L.264,1.362A1.879,1.879,0,0,1,0,.388" transform="translate(0 1.457)"/></g><g transform="translate(393.721 31.422)"><path class="a" d="M0,7.429V-26.079a1.8,1.8,0,0,1,.528-1.305,1.746,1.746,0,0,1,1.3-.539,1.789,1.789,0,0,1,1.308.539,1.778,1.778,0,0,1,.541,1.305V-9.247L19.428-27.212a1.8,1.8,0,0,1,1.453-.712,1.829,1.829,0,0,1,1.335.566,1.821,1.821,0,0,1,.568,1.331,1.932,1.932,0,0,1-.528,1.291L10.944-12.117,24.028,6.3a2.017,2.017,0,0,1,.37,1.133,1.8,1.8,0,0,1-1.824,1.818A1.87,1.87,0,0,1,20.988,8.4L8.432-9.4,3.674-4.057V7.429A1.735,1.735,0,0,1,3.133,8.72a1.813,1.813,0,0,1-1.308.527,1.769,1.769,0,0,1-1.3-.527A1.757,1.757,0,0,1,0,7.429" transform="translate(0 27.924)"/></g><g transform="translate(11.371 -0.001)"><path class="a" d="M17.626,13.925A12.927,12.927,0,0,1,5.479,24.154H-37.608a7.664,7.664,0,0,1-6.069-2.64,7.988,7.988,0,0,1-1.47-6.759l.878-4.483a3.171,3.171,0,0,1,3.113-2.555H1.634A2.255,2.255,0,0,0,3.864,5.966,2.217,2.217,0,0,0,1.691,3.291H-39.05A3.164,3.164,0,0,1-42.163-.476L-37.6-23.762c1.106-5.65,6.56-10.247,12.157-10.247H17.3a7.627,7.627,0,0,1,6.014,2.619,8.076,8.076,0,0,1,1.528,6.8l-.831,4.44a3.169,3.169,0,0,1-3.117,2.581h-30.98a2.255,2.255,0,0,0-2.232,1.75,2.218,2.218,0,0,0,2.173,2.675H18.876a3.165,3.165,0,0,1,3.119,3.741ZM-1.41-47.917a7.815,7.815,0,0,1,6.166,2.689,7.367,7.367,0,0,1,1.443,2.8,3.169,3.169,0,0,1-3.066,3.991H-8.756a2.9,2.9,0,0,1-2.262-4.743,12.94,12.94,0,0,1,9.609-4.74m28.134,13.7A12,12,0,0,0,17.3-38.434H14.047a3.193,3.193,0,0,1-3.162-2.947,12,12,0,0,0-2.71-6.67A12.182,12.182,0,0,0-1.41-52.343c-6.593,0-13.023,4.569-15.734,10.717a5.478,5.478,0,0,1-5.039,3.192h-3.261c-7.613,0-15.023,6.2-16.515,13.824l-2.426,12.386A3.17,3.17,0,0,1-47.5-9.669H-62.93a2.254,2.254,0,0,0-2.232,1.75,2.218,2.218,0,0,0,2.173,2.675H-49.6a3.163,3.163,0,0,1,3.112,3.766L-46.924.736a3.169,3.169,0,0,1-3.112,2.555h-9.578a2.254,2.254,0,0,0-2.231,1.751,2.217,2.217,0,0,0,2.172,2.675h7.53a3.163,3.163,0,0,1,3.112,3.766l-.475,2.424a12.31,12.31,0,0,0,2.4,10.42,12.027,12.027,0,0,0,9.5,4.253H5.479c7.675,0,15.082-6.211,16.511-13.843L29.2-23.781a12.411,12.411,0,0,0-2.477-10.436" transform="translate(65.209 52.343)"/></g><g transform="translate(17.024 29.714)"><path class="a" d="M.472.93H7.4a2.217,2.217,0,0,0,2.22-2.213A2.216,2.216,0,0,0,7.4-3.495H.472a2.216,2.216,0,0,0-2.22,2.212A2.217,2.217,0,0,0,.472.93" transform="translate(1.748 3.495)"/></g><g transform="translate(52.234 34.771)"><path class="a" d="M1.144,0H-2.011a2.217,2.217,0,0,0-2.22,2.213,2.216,2.216,0,0,0,2.22,2.212H1.144A2.212,2.212,0,1,0,1.144,0" transform="translate(4.231)"/></g><g transform="translate(0 42.307)"><path class="a" d="M.138.13a2.217,2.217,0,0,0,0,3.13,1.978,1.978,0,0,0,.337.272,2.268,2.268,0,0,0,.386.208,3.109,3.109,0,0,0,.413.127,2.56,2.56,0,0,0,.437.039A2.217,2.217,0,0,0,3.931,1.7,2.233,2.233,0,0,0,3.278.13a2.3,2.3,0,0,0-3.14,0" transform="translate(0.509 0.489)"/></g><g transform="translate(270.711 31.42)"><path class="a" d="M4.466,7.215a1.625,1.625,0,0,0-1.189-.5H-12.847V-6.809H-.927A1.6,1.6,0,0,0,.249-7.3,1.59,1.59,0,0,0,.738-8.469,1.639,1.639,0,0,0,.249-9.654a1.588,1.588,0,0,0-1.176-.5h-11.92v-13.62H2.695a1.588,1.588,0,0,0,1.176-.5A1.637,1.637,0,0,0,4.36-25.46a1.6,1.6,0,0,0-.489-1.172,1.61,1.61,0,0,0-1.176-.487H-14.7a1.761,1.761,0,0,0-1.3.528,1.75,1.75,0,0,0-.528,1.29V8.217a1.793,1.793,0,0,0,.528,1.3,1.742,1.742,0,0,0,1.3.539H3.277a1.648,1.648,0,0,0,1.189-.487,1.571,1.571,0,0,0,.5-1.172,1.616,1.616,0,0,0-.5-1.185" transform="translate(16.521 27.12)"/></g><g transform="translate(309.188 63.349)"><path class="a" d="M0,.719A1.736,1.736,0,0,0,.542,2.011a1.808,1.808,0,0,0,1.308.527,1.811,1.811,0,0,0,1.308-.527A1.735,1.735,0,0,0,3.7.719V-2.7H0Z" transform="translate(0 2.704)"/></g><g transform="translate(297.77 31.421)"><path class="a" d="M5.529.1A1.712,1.712,0,0,0,4.286-.385H-18.709A1.71,1.71,0,0,0-19.951.1a1.635,1.635,0,0,0-.5,1.226,1.674,1.674,0,0,0,.5,1.237,1.682,1.682,0,0,0,1.242.5h9.673V31.729h3.7V3.066h9.62a1.684,1.684,0,0,0,1.242-.5,1.674,1.674,0,0,0,.5-1.237A1.635,1.635,0,0,0,5.529.1" transform="translate(20.454 0.385)"/></g><g transform="translate(353.322 68.594)"><path class="a" d="M.177.038A1.853,1.853,0,0,0,.983-.144H-.654A1.894,1.894,0,0,0,.177.038" transform="translate(0.654 0.144)"/></g><g transform="translate(331.992 31.421)"><path class="a" d="M.782,3.626V-10.283H9.664a6.313,6.313,0,0,1,4.784,1.975,6.944,6.944,0,0,1,1.876,4.979,7.038,7.038,0,0,1-1.85,4.939A6.047,6.047,0,0,1,9.821,3.626ZM21.119,21.908a1.709,1.709,0,0,0-.4-1.132l-2.248-3.013h0l-.367-.487-.039-.052h0L10.376,6.972A9.62,9.62,0,0,0,17.368,3.85a10.256,10.256,0,0,0,2.683-7.178,10.019,10.019,0,0,0-2.934-7.337,9.984,9.984,0,0,0-7.4-2.964H-1.069a1.756,1.756,0,0,0-1.294.528,1.752,1.752,0,0,0-.528,1.29V21.723a1.752,1.752,0,0,0,.528,1.29,1.765,1.765,0,0,0,1.294.528,1.815,1.815,0,0,0,1.31-.528,1.73,1.73,0,0,0,.541-1.29V6.972H6.253L15.36,19.625l2.35,3.258a1.723,1.723,0,0,0,.729.661h1.637a1.9,1.9,0,0,0,.5-.344,1.731,1.731,0,0,0,.541-1.291" transform="translate(2.892 13.629)"/></g></g><g class="d"><text class="e" transform="translate(418.706 26.599)"><tspan x="0" y="0">®</tspan></text></g></svg>